# xmcd CD database file
#
# Track frame offsets:
#	150
#	22005
#	42702
#	61140
#	80994
#	99139
#	115376
#	130591
#	151306
#
# Disc length: 2259 seconds
#
# Revision: 0
# Processed by: cddbd v1.5.2PL0 Copyright (c) Steve Scherf et al.
# Submitted via: CDex 1.51
#
DISCID=7208d109
DTITLE=Beck, Bogert, Appice - Beck, Bogert, Appice
DYEAR=1973
DGENRE=Blues
TTITLE0=Black Cat Moan
TTITLE1=Lady
TTITLE2=Oh To Love You
TTITLE3=Superstition
TTITLE4=Sweet Sweet Surrender
TTITLE5=Why Should I Care
TTITLE6=Lose Myself With You
TTITLE7=Livin' Alone
TTITLE8=I'm So Proud
EXTD=YEAR: 1973
EXTT0=
EXTT1=
EXTT2=
EXTT3=
EXTT4=
EXTT5=
EXTT6=
EXTT7=
EXTT8=
PLAYORDER=
